PathFileType	4	(X/Y/Z)	OpenSim_Sub04_EMGBaseline_Gyro.trc
DataRate	CameraRate	NumFrames	NumMarkers	Units	OrigDataRate	OrigDataStartFrame	OrigNumFrames
100	100	30	8	m	100	4964	7941
Frame#	Time	torso_imu_offset_imu	pelvis_imu_offset_imu	tibia_r_imu_offset_imu	femur_r_imu_offset_imu	tibia_l_imu_offset_imu	femur_l_imu_offset_imu	toes_r_imu_offset_imu	toes_l_imu_offset_imu
				X1	Y1	Z1	X2	Y2	Z2	X3	Y3	Z3	X4	Y4	Z4	X5	Y5	Z5	X6	Y6	Z6	X7	Y7	Z7	X8		Y8	Z8	

4964	49.63000000	-0.20234880	0.16233343	0.10274267	0.04737427	0.24486033	-0.25568107	0.24871194	-0.07733350	-0.54605510	-0.23312677	-0.16589676	-0.55442537	-1.80594162	0.50221702	-4.57347621	-0.18235298	0.02397205	-0.48510369	0.12863638	0.09113088	-0.41812540	0.01092073	3.67361521	-1.82996934
4965	49.64000000	-0.16691757	0.16357090	0.07019657	0.01768199	0.22823264	-0.26099776	0.27766207	-0.09002307	-0.56633333	-0.18223913	-0.18155055	-0.58607418	-1.68073011	0.64313720	-4.65699611	-0.08709785	-0.02652145	-0.36672314	0.15395878	0.12404136	-0.45087171	0.04410422	3.42545153	-1.92534084
4966	49.65000000	-0.12726930	0.16126911	0.04345684	-0.00723365	0.21204780	-0.26610436	0.26697030	-0.08675388	-0.59728912	-0.14475750	-0.19905014	-0.60877775	-1.34902637	0.79773195	-4.72951715	0.01751968	-0.10493439	-0.26001243	0.12656189	0.11700643	-0.47045645	0.14410446	3.35050300	-2.05535411
4967	49.66000000	-0.10498516	0.15265079	0.03091836	-0.03438820	0.18624465	-0.26987753	0.26930338	-0.08849252	-0.62833106	-0.09482940	-0.21939041	-0.60996448	-0.87741209	0.93085383	-4.74295942	0.11619709	-0.16111654	-0.14759993	0.13622575	0.10847669	-0.47379484	-0.07649824	3.41083551	-2.09322136
4968	49.67000000	-0.07436521	0.13789657	0.01706737	-0.08321981	0.15894839	-0.27291840	0.28005555	-0.08092515	-0.64219367	-0.03233103	-0.23825940	-0.60224375	-0.45086224	1.05869557	-4.67916682	0.15442444	-0.17040372	-0.03560717	0.12539724	0.07795334	-0.47063599	-0.52691055	3.29209667	-1.95807031
4969	49.68000000	-0.04439981	0.12711496	-0.00195050	-0.12816650	0.14178578	-0.26270115	0.25302371	-0.08628807	-0.65483216	0.05685817	-0.23419812	-0.59556841	-0.22890193	1.13081279	-4.58844462	0.20866435	-0.17423474	0.11086470	0.14352358	0.01173418	-0.47288629	-0.93423311	2.94501909	-1.76420094
4970	49.69000000	-0.01698736	0.11398102	-0.01795465	-0.18570566	0.11673140	-0.24911387	0.20042467	-0.11359140	-0.68030580	0.14940735	-0.22183847	-0.59206456	-0.03492817	1.17162406	-4.55476819	0.26306671	-0.16446815	0.21053304	0.07531311	-0.03020534	-0.44296372	-1.07655356	2.49885197	-1.61480530
4971	49.70000000	0.02801187	0.09180674	-0.02660696	-0.24445639	0.08850180	-0.21883283	0.15905485	-0.13430946	-0.71870107	0.23641729	-0.20364596	-0.59372751	0.19175395	1.15594701	-4.59359030	0.28147516	-0.13183261	0.30149794	0.08291958	-0.08928044	-0.45303699	-0.95142237	2.05142764	-1.55928483
4972	49.71000000	0.06496563	0.07906842	-0.03541167	-0.31916989	0.04875311	-0.19380235	0.12362614	-0.13322417	-0.75239877	0.29349283	-0.20068440	-0.60001940	0.34880198	1.01407210	-4.64030996	0.21304557	-0.09647364	0.41692945	0.07675743	-0.17347653	-0.47786989	-0.64929527	1.67948374	-1.61208030
4973	49.72000000	0.09764081	0.06389629	-0.04587992	-0.37563227	0.01339996	-0.16506348	0.10247042	-0.15001038	-0.76811683	0.31629391	-0.20727273	-0.59490322	0.43637984	0.78692154	-4.60468150	0.02169363	-0.09879545	0.52109268	0.07974637	-0.24764135	-0.50718268	-0.40823485	1.59510064	-1.70856111
4974	49.73000000	0.13866028	0.04690919	-0.05732719	-0.41446556	-0.01040123	-0.14464464	0.06295347	-0.13476347	-0.78944063	0.28778733	-0.21659763	-0.59019721	0.47790347	0.64236181	-4.40061363	-0.24640830	-0.12648752	0.60849923	0.07322149	-0.30055653	-0.53608830	-0.22613488	1.79961441	-1.84610283
4975	49.74000000	0.17238426	0.03260486	-0.07423934	-0.42759821	-0.01534730	-0.13284634	0.02335083	-0.13627475	-0.82232445	0.20026334	-0.21460673	-0.57947759	0.38374372	0.61587354	-4.02419098	-0.49403184	-0.15134066	0.68430453	0.05376352	-0.38112951	-0.55835737	0.05280327	2.18810015	-2.04232103
4976	49.75000000	0.20489706	0.00990864	-0.10584809	-0.42968483	0.00317797	-0.12310813	-0.02833297	-0.12808401	-0.86845452	0.08497954	-0.18311395	-0.56304343	0.06377581	0.54664248	-3.52833801	-0.62794343	-0.13289451	0.76135509	0.11131641	-0.43731350	-0.57549607	0.36687288	2.62730677	-2.21440202
4977	49.76000000	0.23491779	-0.00760940	-0.13391561	-0.43716091	0.02439417	-0.10900993	-0.06240744	-0.10483020	-0.91868447	-0.02396696	-0.12501181	-0.53924118	-0.14153750	0.43965549	-3.04468419	-0.64384672	-0.06982445	0.81247480	0.16296544	-0.51828952	-0.57706864	0.28177072	2.98714596	-2.20905657
4978	49.77000000	0.26095067	-0.02334901	-0.16966112	-0.47548230	0.04359734	-0.08852786	-0.09855715	-0.08792804	-0.96820917	-0.13726435	-0.05417366	-0.50677640	-0.23537880	0.43005613	-2.62099416	-0.56236565	-0.03241550	0.81099412	0.08886658	-0.62420208	-0.49814334	-0.18928697	3.05398510	-2.01998583
4979	49.78000000	0.28317208	-0.04689750	-0.20397177	-0.49978612	0.04778217	-0.07324128	-0.12009254	-0.08210600	-1.02519702	-0.24093430	0.02300860	-0.48070964	-0.54340600	0.40829328	-2.29148725	-0.44755235	-0.04080294	0.74011054	-0.04443214	-0.76985530	-0.45704323	-0.58773507	2.75256409	-1.75604027
4980	49.79000000	0.30186113	-0.05572017	-0.22737308	-0.51437461	0.05221161	-0.04923775	-0.13400819	-0.06635225	-1.09191101	-0.35476132	0.09636667	-0.45103313	-0.83951090	0.30062210	-1.99103369	-0.30512988	-0.13126983	0.60520568	0.08050646	-0.84960693	-0.46576967	-0.65155460	2.30047435	-1.54019481
4981	49.80000000	0.32132725	-0.06522012	-0.24946883	-0.50787744	0.05106554	-0.02465076	-0.11201625	-0.04895841	-1.15472328	-0.45029348	0.16951502	-0.41129519	-0.90028263	0.16880746	-1.58319551	-0.11779955	-0.28857448	0.45042042	0.04004277	-0.97366824	-0.43008265	-0.30742817	1.87487246	-1.40409404
4982	49.81000000	0.33687582	-0.08103597	-0.26967009	-0.47781519	0.03786061	-0.00460348	-0.08327639	-0.02985030	-1.21427908	-0.51578260	0.22496389	-0.35045852	-0.85050656	0.02735067	-1.02471918	0.05642447	-0.45722335	0.29677701	0.04211067	-1.09137609	-0.40857375	0.16357631	1.51030041	-1.28942129
4983	49.82000000	0.34661795	-0.09125503	-0.28732330	-0.43725285	0.00782745	0.01247091	-0.03590852	-0.01031120	-1.27615542	-0.53599350	0.25566597	-0.28986085	-0.80890581	-0.07116923	-0.38091968	0.13523484	-0.59429044	0.13856606	0.02386444	-1.20210486	-0.37803563	0.46612864	1.15301870	-1.13822534
4984	49.83000000	0.35558762	-0.10219310	-0.29665150	-0.40007300	-0.04123258	0.02372459	-0.02613149	0.01836669	-1.33961646	-0.52096188	0.26933327	-0.23059465	-0.86283368	-0.12790373	0.24657856	0.08647507	-0.63981025	-0.00303999	-0.00167364	-1.32047122	-0.34736882	0.47302505	0.66306837	-0.94876826
4985	49.84000000	0.36049019	-0.11665034	-0.30876556	-0.38190552	-0.10179546	0.03099650	-0.02569440	0.03555983	-1.40238567	-0.46265014	0.28774773	-0.18778467	-0.97194333	-0.24409961	0.77657685	-0.02598758	-0.57735772	-0.13411264	-0.03286242	-1.44419296	-0.32209324	0.25328427	-0.10008625	-0.67861372
4986	49.85000000	0.37607851	-0.13598436	-0.32192021	-0.38372082	-0.14424688	0.03506074	-0.01974552	0.03897674	-1.46521731	-0.41312615	0.30844651	-0.17448078	-1.02869674	-0.47685744	1.20568200	-0.12066376	-0.44504237	-0.23103189	-0.08011757	-1.55968769	-0.30738609	-0.47792102	-1.18808802	0.02747804
4987	49.86000000	0.39177619	-0.17079589	-0.32551715	-0.40380149	-0.17020409	0.03887784	-0.01153272	0.04704390	-1.52672148	-0.39461241	0.34169957	-0.15917730	-1.12977898	-0.72348475	1.57782710	-0.15582130	-0.30788815	-0.27789690	-0.05638762	-1.69022114	-0.34083135	-0.68972804	-1.54856030	0.22173792
4988	49.87000000	0.41587671	-0.20325234	-0.32643278	-0.40480374	-0.16375671	0.03727195	0.02980893	0.03770158	-1.59986141	-0.39659913	0.36194169	-0.13003860	-1.25814199	-0.89467449	1.88006107	-0.14224679	-0.23595523	-0.28650471	-0.06236241	-1.82290584	-0.36652939	0.38695844	-1.65167367	-0.31387763
4989	49.88000000	0.45061961	-0.23048590	-0.33303821	-0.42772675	-0.15056101	0.03641207	0.01239044	0.00809788	-1.69138390	-0.37972638	0.37269979	-0.09029121	-1.22466166	-0.92374716	2.01061259	-0.11568979	-0.25828451	-0.24711366	-0.04275887	-2.00098460	-0.42866160	-0.37776463	-1.23417949	-0.38219144
4990	49.89000000	0.48279487	-0.25465141	-0.33145407	-0.45081313	-0.16101553	0.02986439	-0.03902327	-0.01451129	-1.78226858	-0.29899380	0.36383389	-0.04328399	-0.88272002	-1.04857680	1.66005284	-0.07366206	-0.42098500	-0.13078037	-0.01093689	-2.21189855	-0.49047151	-0.97902347	-1.53809769	-0.14088859
4991	49.90000000	0.49456036	-0.26553256	-0.32465518	-0.49176130	-0.21164991	0.01685475	-0.09385333	-0.05475680	-1.88414186	-0.16830945	0.33753708	0.02177927	-0.26595545	-1.16182874	1.01961021	-0.02353177	-0.68440239	0.03339781	0.01201588	-2.45020090	-0.55061936	-0.28688977	-1.95310412	0.02468083
4992	49.91000000	0.47995484	-0.27044557	-0.31063251	-0.48897846	-0.24036445	0.00822964	-0.20422163	-0.06378121	-1.98664866	-0.03955330	0.32687623	0.10866581	-0.40843001	-0.95710159	0.46615824	0.00865417	-0.98272015	0.24252983	0.08106746	-2.67840030	-0.62754456	0.05989110	-2.10709716	0.27096393
4993	49.92000000	0.47737212	-0.27158866	-0.29491801	-0.44989846	-0.25390541	0.00001134	-0.28760574	-0.07822168	-2.08292792	0.07139674	0.34804693	0.20954723	-0.56514019	-0.69394734	0.30499796	-0.04419404	-1.19385739	0.43440075	0.13953966	-3.08681455	-0.64929210	0.26361560	-2.04372049	0.61973470
